<svg width="21" height="21" viewBox="0 0 21 21" fill="none" xmlns="http://www.w3.org/2000/svg">
<path d="M4.01758 3.9687C5.45579 4.18224 6.76929 4.90576 7.7184 6.00723C8.66751 7.10871 9.18895 8.51472 9.18758 9.9687C9.19481 11.7939 9.85692 13.5558 11.0535 14.934C12.25 16.3123 13.9015 17.2152 15.7076 17.4787L18.2976 17.8487C18.2276 17.9287 18.1676 18.0087 18.0876 18.0887C14.8276 21.3487 8.56758 20.3687 4.08758 15.9087C0.297579 12.0687 -0.982421 6.9687 0.777579 3.5087L4.01758 3.9687Z" fill="white"/>
<path d="M10.7476 9.96891C10.741 8.14408 10.0807 6.38203 8.88633 5.00236C7.69196 3.62268 6.04266 2.71676 4.23759 2.44891L1.77759 2.09891L1.92759 1.92891C5.18759 -1.33109 11.4476 -0.361094 15.9276 4.09891C19.6976 7.85891 21.0176 12.9689 19.2676 16.3789L15.9276 15.8989C14.4986 15.6913 13.1909 14.9794 12.2409 13.8919C11.2909 12.8043 10.7612 11.4129 10.7476 9.96891Z" fill="white"/>
</svg>
